<?xml version="1.0" standalone="no"?>
<!DOCTYPE svg PUBLIC "-//W3C//DTD SVG 20010904//EN"
 "http://www.w3.org/TR/2001/REC-SVG-20010904/DTD/svg10.dtd">
<svg version="1.0" xmlns="http://www.w3.org/2000/svg"
 width="700.000000pt" height="700.000000pt" viewBox="0 0 700.000000 700.000000"
 preserveAspectRatio="xMidYMid meet">
<metadata>
Created by potrace 1.11, written by Peter Selinger 2001-2013
</metadata>
<g transform="translate(0.000000,700.000000) scale(0.100000,-0.100000)"
fill="#000000" stroke="none">
<path d="M5724 6484 c-544 -86 -1063 -725 -1396 -1719 -45 -133 -110 -356
-124 -425 -2 -14 -16 -77 -29 -140 -14 -63 -27 -132 -31 -154 -3 -21 -8 -48
-10 -60 -2 -11 -7 -41 -10 -66 -3 -25 -8 -47 -9 -51 -2 -3 -7 -39 -10 -80 -4
-40 -8 -85 -11 -99 -29 -179 -23 -611 12 -825 10 -63 11 -66 40 -176 111 -421
337 -637 687 -653 244 -12 516 221 713 610 26 51 49 92 52 90 3 -4 -17 -113
-44 -241 -2 -11 -7 -33 -9 -50 -3 -16 -28 -127 -55 -245 -26 -118 -54 -240
-61 -272 l-12 -56 -201 -143 c-525 -373 -744 -577 -880 -820 -35 -65 -79 -177
-91 -235 -17 -81 -17 -220 -1 -276 57 -194 266 -343 496 -351 219 -9 436 108
648 346 51 58 177 249 222 339 136 266 193 438 344 1031 l66 258 58 52 c306
277 537 576 723 937 149 290 189 426 129 445 -48 15 -83 -24 -168 -187 -110
-209 -256 -421 -418 -603 -89 -100 -235 -248 -239 -243 -2 2 8 57 21 123 13
66 26 134 28 150 3 17 8 41 11 55 3 14 8 41 11 60 2 19 6 42 9 50 2 8 7 30 10
48 3 17 8 47 11 65 46 248 50 375 17 447 -75 160 -300 193 -441 65 -29 -26
-48 -57 -72 -118 -114 -292 -162 -399 -237 -530 -144 -252 -280 -369 -432
-370 -196 -1 -322 186 -359 533 -9 80 -8 466 1 535 4 28 9 77 12 110 7 71 10
90 36 255 58 366 170 782 309 1145 264 686 595 1126 910 1210 89 24 105 21
123 -22 32 -75 38 -110 42 -228 6 -157 -36 -370 -126 -648 -168 -519 -176
-547 -208 -692 -38 -172 -42 -277 -15 -324 74 -126 363 -162 507 -63 65 44 89
96 102 227 6 60 41 312 49 350 5 25 13 85 35 253 33 246 38 322 35 517 -1 99
-4 189 -7 200 -2 11 -8 40 -12 65 -33 212 -153 407 -296 480 -19 10 -42 26
-49 35 -8 9 -34 27 -59 39 -93 47 -215 60 -347 40z m-439 -5161 c-97 -395
-223 -708 -352 -875 -40 -51 -151 -157 -184 -174 -184 -96 -323 7 -298 221 27
219 188 447 508 715 89 75 353 271 358 266 2 -2 -12 -71 -32 -153z"/>
<path d="M1925 4580 c-278 -97 -568 -251 -809 -430 -430 -319 -720 -756 -825
-1242 -19 -90 -23 -114 -40 -263 -8 -67 -6 -423 2 -475 3 -14 5 -37 6 -51 l1
-26 48 14 c284 87 530 188 704 290 134 80 153 90 155 84 1 -3 4 -73 7 -156 6
-165 11 -213 20 -222 13 -14 304 84 476 159 72 32 264 129 277 140 10 8 13 -4
14 -58 0 -38 3 -87 5 -109 2 -22 5 -59 7 -82 1 -23 5 -45 9 -48 12 -13 197 44
374 115 526 210 929 520 1183 910 124 190 227 473 256 700 4 30 9 64 11 75 6
26 5 361 0 400 -3 16 -7 52 -11 80 -3 27 -10 73 -15 100 -5 28 -12 66 -15 85
-3 19 -8 36 -10 38 -10 11 -228 -67 -360 -129 -38 -18 -72 -33 -75 -34 -18 -4
-237 -125 -270 -148 -31 -21 -36 -21 -36 1 -1 33 -14 155 -18 161 -2 3 -7 24
-10 46 -14 90 -19 105 -32 105 -8 0 -72 -20 -142 -45 -165 -60 -457 -204 -601
-299 -63 -42 -116 -75 -117 -73 -1 1 -4 43 -8 92 -3 50 -8 101 -10 115 -2 14
-10 59 -17 100 -7 41 -14 78 -15 83 -1 4 -2 12 -3 17 -2 15 -29 11 -116 -20z"/>
</g>
</svg>
