<svg xmlns="http://www.w3.org/2000/svg" xmlns:xlink="http://www.w3.org/1999/xlink" version="1.1" x="0px" y="0px" viewBox="0 0 100 100" enable-background="new 0 0 100 100" xml:space="preserve"><path d="M18.851,33.904C11.202,33.904,5,38.037,5,43.137c0,1.684,0,0.947,0,2.307c0,2.551,2.068,4.619,4.618,4.619h18.466  c2.549,0,4.618-2.068,4.618-4.619v-2.307C32.702,38.037,26.499,33.904,18.851,33.904z M29.703,45.443L29.703,45.443  c-0.001,0.893-0.727,1.619-1.619,1.619H9.618C8.726,47.063,8,46.336,8,45.443v-2.307c0-2.948,4.456-6.232,10.851-6.232  s10.852,3.285,10.852,6.232V45.443z"></path><path d="M19.046,31.342c4.144,0,7.502-3.359,7.502-7.5c0-4.142-3.358-7.5-7.502-7.5c-4.142,0-7.498,3.358-7.498,7.5  C11.548,27.982,14.904,31.342,19.046,31.342z M19.046,19.342c2.482,0,4.502,2.019,4.502,4.5c0,2.481-2.02,4.5-4.502,4.5  c-2.48,0-4.498-2.019-4.498-4.5C14.548,21.361,16.565,19.342,19.046,19.342z"></path><path d="M18.851,74.902C11.202,74.902,5,79.035,5,84.135c0,1.684,0,0.949,0,2.309c0,2.554,2.068,4.617,4.618,4.617h18.466  c2.549,0,4.618-2.063,4.618-4.617v-2.309C32.702,79.035,26.499,74.902,18.851,74.902z M29.703,86.443L29.703,86.443  c-0.001,0.892-0.727,1.617-1.619,1.617H9.618C8.726,88.061,8,87.335,8,86.443v-2.31c0-2.948,4.456-6.231,10.851-6.231  s10.852,3.283,10.852,6.231V86.443z"></path><path d="M26.548,64.84c0-4.143-3.358-7.5-7.502-7.5c-4.142,0-7.498,3.357-7.498,7.5c0,4.141,3.356,7.5,7.498,7.5  C23.189,72.34,26.548,68.98,26.548,64.84z M14.548,64.84c0-2.48,2.018-4.5,4.498-4.5c2.482,0,4.502,2.02,4.502,4.5  s-2.02,4.5-4.502,4.5C16.565,69.34,14.548,67.32,14.548,64.84z"></path><path d="M50,74.902c-7.648,0-13.851,4.133-13.851,9.231c0,1.685,0,0.949,0,2.31c0,2.553,2.069,4.617,4.618,4.617h18.465  c2.549,0,4.617-2.064,4.617-4.617v-2.31C63.852,79.035,57.648,74.902,50,74.902z M60.852,86.443c0,0.892-0.727,1.617-1.619,1.617  H40.768c-0.893,0-1.618-0.727-1.618-1.617v-2.31c0-2.948,4.456-6.231,10.851-6.231c6.396,0,10.851,3.283,10.851,6.231V86.443z"></path><path d="M42.697,64.84c0,4.141,3.355,7.5,7.498,7.5c4.144,0,7.502-3.359,7.502-7.5c0-4.143-3.358-7.498-7.502-7.498  C46.053,57.342,42.697,60.697,42.697,64.84z M54.697,64.84c0,2.48-2.021,4.5-4.502,4.5c-2.48,0-4.498-2.02-4.498-4.5  s2.018-4.498,4.498-4.498C52.678,60.342,54.697,62.359,54.697,64.84z"></path><path d="M81.148,74.902c-7.647,0-13.852,4.133-13.852,9.231c0,1.685,0,0.949,0,2.31c0,2.553,2.069,4.617,4.618,4.617h18.466  c2.551,0,4.618-2.064,4.618-4.617v-2.31C95,79.035,88.798,74.902,81.148,74.902z M92,86.443c0,0.892-0.727,1.617-1.618,1.617H71.916  c-0.893,0-1.618-0.727-1.618-1.617v-2.31c0-2.948,4.457-6.231,10.853-6.231c6.395,0,10.85,3.285,10.85,6.232V86.443z"></path><path d="M73.846,64.84c0,4.141,3.356,7.5,7.5,7.5c4.143,0,7.5-3.359,7.5-7.5c0-4.143-3.357-7.498-7.5-7.498  C77.202,57.342,73.846,60.697,73.846,64.84z M85.846,64.84c0,2.48-2.02,4.5-4.5,4.5s-4.5-2.02-4.5-4.5s2.02-4.498,4.5-4.498  S85.846,62.359,85.846,64.84z"></path><path d="M38.242,50.063H89.46c0.612,0,1.106-0.496,1.106-1.109V10.048c0-0.613-0.494-1.108-1.106-1.108H38.242  c-0.612,0-1.108,0.495-1.108,1.108v38.905C37.134,49.566,37.63,50.063,38.242,50.063z M39.35,11.155h49.001v34.259H39.35V11.155z"></path><path d="M73.947,17.927H49.322c-0.612,0-1.107,0.496-1.107,1.108c0,0.612,0.495,1.109,1.107,1.109h24.625  c0.611,0,1.107-0.497,1.107-1.109C75.055,18.423,74.561,17.927,73.947,17.927z"></path><path d="M62.866,26.916H49.322c-0.612,0-1.107,0.494-1.107,1.107s0.495,1.107,1.107,1.107h13.544c0.61,0,1.106-0.494,1.106-1.107  S63.479,26.916,62.866,26.916z"></path></svg>