<?xml version="1.0" encoding="utf-8"?>
<!-- Generator: Adobe Illustrator 16.0.0, SVG Export Plug-In . SVG Version: 6.00 Build 0)  -->
<!DOCTYPE svg PUBLIC "-//W3C//DTD SVG 1.1//EN" "http://www.w3.org/Graphics/SVG/1.1/DTD/svg11.dtd">
<svg version="1.1" id="Layer_1" xmlns="http://www.w3.org/2000/svg" xmlns:xlink="http://www.w3.org/1999/xlink" x="0px" y="0px"
	 width="210.607px" height="102.166px" viewBox="0 0 210.607 102.166" enable-background="new 0 0 210.607 102.166"
	 xml:space="preserve">
<g>
	<g>
		<path fill="#004982" d="M125.707,13.382h-0.18c-0.215-0.432-0.846-1.692-3.439-1.692c-3.006,0-4.609,1.98-4.609,5.384
			c0,0.63,0,2.305,1.099,3.763c0.648,0.847,1.62,1.639,3.258,1.639c2.215,0,3.35-1.099,4.16-2.053l0.197,0.126l-0.197,1.783
			c-1.369,0.756-2.918,1.134-4.556,1.134c-3.511,0-6.428-2.179-6.428-6.229c0-3.619,2.215-6.519,7.023-6.519
			c1.477,0,2.771,0.253,4.213,0.9L125.707,13.382z"/>
		<path fill="#004982" d="M133.355,14.444c2.773,0,4.52,1.566,4.52,4.501c0,2.791-1.746,4.483-4.52,4.483
			c-2.719,0-4.52-1.692-4.52-4.483C128.836,16.173,130.637,14.444,133.355,14.444z M133.355,22.709c1.963,0,2.27-2.251,2.27-3.781
			s-0.307-3.764-2.27-3.764s-2.27,2.27-2.27,3.764C131.086,20.458,131.393,22.709,133.355,22.709z"/>
		<path fill="#004982" d="M142.336,9.979c0.594,0,0.793-0.054,1.152-0.107c-0.18,1.944-0.18,4.771-0.18,6.626
			c0,0.36-0.055,4.682,0.162,6.716c-0.359-0.036-0.721-0.108-1.098-0.108c-0.307,0-0.613,0.036-1.244,0.108
			c0.199-1.387,0.182-6.734,0.182-7.166c0-3.349-0.09-4.771-0.217-6.176C141.543,9.943,141.76,9.979,142.336,9.979z"/>
		<path fill="#004982" d="M153.371,21.971c-0.432,0.63-1.332,1.494-2.736,1.494c-2.359,0-3.943-1.963-3.943-4.394
			c0-3.007,1.818-4.591,4.033-4.591c1.332,0,1.963,0.576,2.574,1.188c0-2.323-0.035-4.304-0.215-5.798
			c0.396,0.072,0.756,0.107,1.277,0.107c0.379,0,0.721-0.035,1.027-0.107c-0.127,2.143-0.199,4.303-0.199,6.445
			c0,0.288,0.037,5.816,0.199,6.896c-0.18-0.036-0.576-0.108-1.027-0.108c-0.449,0-0.756,0.072-1.043,0.108L153.371,21.971z
			 M153.299,18.874c0-1.711-0.432-3.439-2.16-3.439c-1.783,0-2.197,1.908-2.197,3.277c0,1.386,0.271,3.673,2.125,3.673
			C152.398,22.385,153.299,21.25,153.299,18.874z"/>
		<path fill="#004982" d="M115.588,42.512c0.828,1.801,1.729,2.071,2.791,2.071c1.423,0,2.358-0.955,2.358-2.251
			c0-1.423-1.134-1.927-1.476-2.07c-0.505-0.217-1.351-0.54-1.855-0.757c-1.746-0.773-2.269-1.692-2.269-3.187
			c0-1.585,0.937-3.602,4.195-3.602c1.314,0,2.106,0.343,2.989,0.738c-0.359,0.883-0.396,1.026-0.559,1.711h-0.252
			c-0.269-1.026-1.224-1.566-2.358-1.566c-1.423,0-2.125,0.882-2.125,1.944c0,1.314,0.919,1.675,2.503,2.287
			c1.387,0.54,1.927,0.738,2.449,1.314c0.756,0.81,0.883,1.872,0.883,2.376c0,1.837-1.279,3.943-4.574,3.943
			c-1.549,0-2.719-0.594-3.367-0.918c0.307-0.937,0.324-1.171,0.414-2.035H115.588z"/>
		<path fill="#004982" d="M128.207,37.831c0.469-0.667,1.35-1.513,2.809-1.513c2.449,0,3.871,2.232,3.871,4.483
			c0,2.07-1.135,4.501-4.051,4.501c-1.387,0-1.998-0.594-2.557-1.17c0,2.665,0.053,4.231,0.197,5.762
			c-0.359-0.072-0.576-0.108-1.188-0.108c-0.432,0-0.703,0.036-1.117,0.108c0.18-2.233,0.217-5.636,0.217-6.734
			c0-1.908-0.037-4.735-0.199-6.59c0.344,0.036,0.721,0.108,1.1,0.108c0.414,0,0.701-0.072,0.973-0.108L128.207,37.831z
			 M130.457,37.417c-1.764,0-2.178,2.088-2.178,3.475c0,1.566,0.359,3.475,2.25,3.475c1.729,0,2.107-2.07,2.107-3.385
			C132.637,39.974,132.492,37.417,130.457,37.417z"/>
		<path fill="#004982" d="M138.268,43.448c0.037-0.792,0.037-2.179,0.037-2.881c0-1.963-0.037-2.412-0.127-3.997
			c0.414,0.072,0.721,0.108,1.189,0.108c0.432,0,0.738-0.036,1.025-0.108c-0.107,0.918-0.107,1.009-0.107,1.891
			c0.486-0.774,1.205-1.98,2.646-1.98c0.18,0,0.324,0.018,0.469,0.054c-0.145,0.271-0.162,1.045-0.162,1.297
			c0,0.288,0.035,0.558,0.09,0.773l-0.127,0.091c-0.307-0.253-0.973-0.253-1.062-0.253c-0.811,0-1.387,0.505-1.602,0.973
			c-0.127,0.271-0.217,0.54-0.217,1.782c0,1.152,0.055,2.899,0.162,4.016c-0.217-0.018-0.666-0.108-1.045-0.108
			c-0.305,0-0.701,0.055-1.242,0.108L138.268,43.448z"/>
		<path fill="#004982" d="M146.111,33.672c0-0.667,0.576-1.261,1.242-1.261s1.262,0.594,1.262,1.261
			c0,0.684-0.613,1.242-1.262,1.242S146.111,34.355,146.111,33.672z M146.328,43.269c0.035-0.919,0.053-1.566,0.053-2.232
			c0-1.279-0.053-3.205-0.18-4.466c0.361,0.054,0.686,0.108,1.207,0.108c0.539,0,0.828-0.055,1.115-0.108l-0.035,0.811
			c-0.035,0.756-0.107,2.431-0.107,3.079c0,0.792,0.035,2.646,0.053,3.276c0,0.234,0.072,1.261,0.072,1.477
			c-0.342-0.054-0.648-0.108-1.043-0.108c-0.414,0-0.811,0.055-1.225,0.108L146.328,43.269z"/>
		<path fill="#004982" d="M159.975,42.998c0,0.9,0.053,1.801,0.125,2.215c-0.396-0.036-0.773-0.108-1.17-0.108
			s-0.828,0.072-1.17,0.108c0.143-0.864,0.215-2.557,0.215-3.403c0-0.936,0-2.412-0.125-2.898c-0.217-0.847-0.9-1.188-1.676-1.188
			c-0.684,0-1.314,0.45-1.602,1.044c-0.252,0.522-0.307,1.765-0.307,2.377c0,1.639,0.037,2.845,0.127,4.069
			c-0.18-0.018-0.973-0.108-1.135-0.108c-0.359,0-0.756,0.055-1.135,0.108c0.162-2.395,0.18-2.665,0.18-4.808
			c0-2.286-0.018-2.503-0.143-3.835c0.18,0.036,0.539,0.108,1.188,0.108c0.486,0,0.703-0.055,0.99-0.108
			c-0.09,0.522-0.09,0.594-0.09,1.494c0.738-0.99,1.404-1.584,2.791-1.584c1.963,0,3.006,1.116,3.006,3.043
			C160.045,40.027,159.975,42.116,159.975,42.998z"/>
		<path fill="#004982" d="M169.693,37.543c0.791,0.756,0.863,1.476,0.863,1.962c0,1.045-0.594,2.449-2.953,2.629
			c-0.252,0.019-1.367,0.036-1.584,0.072c-0.324,0.054-0.666,0.234-0.666,0.756c0,0.774,0.613,0.847,1.08,0.883
			c0.217,0.018,2.322,0.018,2.756,0.072c1.098,0.144,1.422,0.432,1.619,0.63c0.559,0.558,0.648,1.134,0.648,1.62
			c0,2.305-2.125,3.799-4.482,3.799c-2.143,0-3.926-0.81-3.926-2.466c0-1.657,1.225-2.053,1.494-2.125l0.434-0.126
			c-0.811-0.271-1.262-0.864-1.262-1.423c0-0.485,0.055-1.386,1.621-1.891c-1.729-0.647-1.998-1.656-1.998-2.521
			c0-1.927,1.512-2.953,3.492-2.953c0.451,0,0.828,0.055,1.297,0.126c0.99,0.145,1.098,0.162,1.891,0.162
			c0.377,0,1.098-0.018,1.422-0.09c-0.035,0.181-0.055,0.288-0.055,0.469c0,0.216,0.02,0.396,0.055,0.54
			c-0.18-0.019-0.918-0.09-1.08-0.09L169.693,37.543z M169.801,46.995c0-1.477-1.549-1.584-2.682-1.584c-0.648,0-1.531,0.09-2,0.468
			c-0.107,0.09-0.557,0.522-0.557,1.225c0,1.44,1.08,2.034,2.447,2.034C168.289,49.138,169.801,48.508,169.801,46.995z
			 M168.486,39.271c0-0.486-0.09-2.107-1.512-2.107c-1.549,0-1.549,1.567-1.549,2.305c0,1.045,0.234,2.089,1.549,2.089
			C167.803,41.558,168.486,40.855,168.486,39.271z"/>
		<path fill="#004982" d="M123.926,61.146c-0.973-0.036-1.945-0.072-2.917-0.072c-1.026,0-2.053,0.036-3.079,0.072v1.8
			c0,2.323,0.072,3.133,0.162,4.268c-0.27-0.018-0.738-0.108-1.242-0.108c-0.433,0-0.847,0.072-1.278,0.108
			c0.144-2.737,0.162-5.456,0.162-8.192c0-1.404-0.055-2.772-0.181-4.159c0.36,0.036,1.009,0.108,1.297,0.108
			c0.342,0,1.008-0.072,1.242-0.108c-0.09,0.99-0.162,1.765-0.162,5.132c0.9,0.035,1.818,0.071,2.719,0.071
			c1.098,0,2.178-0.036,3.278-0.071c0-0.469-0.02-2.647-0.037-3.098c0-0.558-0.018-0.702-0.09-2.034
			c0.342,0.036,0.918,0.108,1.314,0.108c0.324,0,0.918-0.072,1.26-0.108c-0.232,1.872-0.252,6.229-0.252,8.103
			c0,1.422,0,2.953,0.182,4.249c-0.434-0.036-0.883-0.108-1.314-0.108c-0.379,0-0.848,0.072-1.225,0.108
			c0.018-0.324,0.143-2.503,0.143-3.169L123.926,61.146z"/>
		<path fill="#004982" d="M133.176,62.298c1.062-0.288,1.205-0.343,1.297-0.505c0.053-0.107,0.07-0.233,0.07-0.359
			c0-1.369-0.773-1.909-1.746-1.909c-1.367,0-1.836,0.847-1.943,1.278c-0.092-0.018-0.182-0.036-0.271-0.036
			s-0.197,0.019-0.287,0.036c0.053-0.342,0.09-0.576,0.09-0.882c0-0.162,0-0.324-0.018-0.486c1.367-0.828,1.926-1.008,2.861-1.008
			c1.945,0,3.277,0.882,3.277,2.7c0,0.666-0.053,2.485-0.053,3.079c0,1.765,0.018,2.196,0.629,2.196c0.18,0,0.342-0.071,0.504-0.144
			c-0.035,0.107-0.072,0.216-0.072,0.324c0,0.107,0.037,0.216,0.072,0.324c-0.467,0.18-1.025,0.396-1.529,0.396
			c-1.062,0-1.279-0.522-1.494-1.099c-0.559,0.738-1.477,1.225-2.414,1.225c-2.088,0-2.484-1.494-2.484-2.196
			c0-1.999,1.225-2.323,2.898-2.772L133.176,62.298z M134.49,62.747c-2.053,0.541-2.791,0.738-2.791,2.035
			c0,0.954,0.469,1.549,1.188,1.549c0.973,0,1.604-0.774,1.604-1.711V62.747z"/>
		<path fill="#004982" d="M140.59,65.448c0.037-0.792,0.037-2.179,0.037-2.881c0-1.963-0.037-2.412-0.127-3.997
			c0.414,0.072,0.721,0.108,1.189,0.108c0.432,0,0.738-0.036,1.025-0.108c-0.107,0.918-0.107,1.009-0.107,1.891
			c0.486-0.774,1.205-1.98,2.646-1.98c0.18,0,0.324,0.018,0.469,0.054c-0.145,0.271-0.162,1.045-0.162,1.297
			c0,0.288,0.035,0.558,0.09,0.773l-0.127,0.091c-0.307-0.253-0.973-0.253-1.062-0.253c-0.811,0-1.387,0.505-1.602,0.973
			c-0.127,0.271-0.217,0.54-0.217,1.782c0,1.152,0.055,2.899,0.162,4.016c-0.217-0.018-0.666-0.108-1.045-0.108
			c-0.305,0-0.701,0.055-1.242,0.108L140.59,65.448z"/>
		<path fill="#004982" d="M152.904,67.429c-1.082,0-2.035-0.216-2.811-1.26c-0.539,0.359-0.611,0.432-1.133,1.044h-0.613
			c0.109-1.818,0.18-2.881,0.18-6.5c0-2.358-0.018-3.511-0.215-6.842c0.359,0.072,0.701,0.107,1.205,0.107
			c0.506,0,0.793-0.054,1.1-0.107c-0.109,1.998-0.109,2.395-0.145,6.086c0.684-0.937,1.549-1.53,2.756-1.53
			c1.781,0,3.779,1.26,3.779,4.267C157.008,65.124,155.533,67.429,152.904,67.429z M154.775,62.874c0-1.188-0.162-3.35-2.16-3.35
			c-1.873,0-2.178,2.07-2.178,3.529c0,1.116,0.107,3.547,2.143,3.547C154.434,66.601,154.775,64.386,154.775,62.874z"/>
		<path fill="#004982" d="M164.459,58.444c2.773,0,4.52,1.566,4.52,4.501c0,2.791-1.746,4.483-4.52,4.483
			c-2.719,0-4.52-1.692-4.52-4.483C159.939,60.173,161.74,58.444,164.459,58.444z M164.459,66.709c1.963,0,2.27-2.251,2.27-3.781
			s-0.307-3.764-2.27-3.764s-2.27,2.27-2.27,3.764C162.189,64.458,162.496,66.709,164.459,66.709z"/>
		<path fill="#004982" d="M172.377,65.448c0.037-0.792,0.037-2.179,0.037-2.881c0-1.963-0.037-2.412-0.127-3.997
			c0.414,0.072,0.721,0.108,1.189,0.108c0.432,0,0.738-0.036,1.025-0.108c-0.107,0.918-0.107,1.009-0.107,1.891
			c0.486-0.774,1.205-1.98,2.646-1.98c0.18,0,0.324,0.018,0.469,0.054c-0.145,0.271-0.162,1.045-0.162,1.297
			c0,0.288,0.035,0.558,0.09,0.773l-0.127,0.091c-0.307-0.253-0.973-0.253-1.062-0.253c-0.811,0-1.387,0.505-1.602,0.973
			c-0.127,0.271-0.217,0.54-0.217,1.782c0,1.152,0.055,2.899,0.162,4.016c-0.217-0.018-0.666-0.108-1.045-0.108
			c-0.305,0-0.701,0.055-1.242,0.108L172.377,65.448z"/>
		<path fill="#004982" d="M115.769,81.776c0-0.792,0-0.972-0.055-2.574c-0.018-0.378-0.054-1.999-0.071-2.341
			c0.45,0.09,0.792,0.108,1.242,0.108s0.811-0.036,1.26-0.108c-0.126,2.719-0.18,4.987-0.18,7.76c0,1.261,0.036,2.431,0.054,3.422
			h0.324c0.522,0,3.115,0,4.178-0.162c-0.055,0.197-0.09,0.306-0.09,0.72c0,0.271,0.018,0.378,0.09,0.612
			c-0.92-0.036-2.467-0.108-3.44-0.108c-1.152,0-2.124,0.036-3.438,0.108c0-0.288,0.126-4.466,0.126-4.915V81.776z"/>
		<path fill="#004982" d="M128.244,84.298c1.062-0.288,1.205-0.343,1.297-0.505c0.053-0.107,0.07-0.233,0.07-0.359
			c0-1.369-0.773-1.909-1.746-1.909c-1.367,0-1.836,0.847-1.943,1.278c-0.092-0.018-0.182-0.036-0.271-0.036
			s-0.197,0.019-0.287,0.036c0.053-0.342,0.09-0.576,0.09-0.882c0-0.162,0-0.324-0.018-0.486c1.367-0.828,1.926-1.008,2.861-1.008
			c1.945,0,3.277,0.882,3.277,2.7c0,0.666-0.053,2.485-0.053,3.079c0,1.765,0.018,2.196,0.629,2.196c0.18,0,0.342-0.071,0.504-0.144
			c-0.035,0.107-0.072,0.216-0.072,0.324c0,0.107,0.037,0.216,0.072,0.324c-0.467,0.18-1.025,0.396-1.529,0.396
			c-1.062,0-1.279-0.522-1.494-1.099c-0.559,0.738-1.477,1.225-2.414,1.225c-2.088,0-2.484-1.494-2.484-2.196
			c0-1.999,1.225-2.323,2.898-2.772L128.244,84.298z M129.559,84.747c-2.053,0.541-2.791,0.738-2.791,2.035
			c0,0.954,0.469,1.549,1.188,1.549c0.973,0,1.604-0.774,1.604-1.711V84.747z"/>
		<path fill="#004982" d="M139.783,89.429c-1.082,0-2.035-0.216-2.811-1.26c-0.539,0.359-0.611,0.432-1.133,1.044h-0.613
			c0.109-1.818,0.18-2.881,0.18-6.5c0-2.358-0.018-3.511-0.215-6.842c0.359,0.072,0.701,0.107,1.205,0.107
			c0.506,0,0.793-0.054,1.1-0.107c-0.109,1.998-0.109,2.395-0.145,6.086c0.684-0.937,1.549-1.53,2.756-1.53
			c1.781,0,3.779,1.26,3.779,4.267C143.887,87.124,142.412,89.429,139.783,89.429z M141.654,84.874c0-1.188-0.162-3.35-2.16-3.35
			c-1.873,0-2.178,2.07-2.178,3.529c0,1.116,0.107,3.547,2.143,3.547C141.312,88.601,141.654,86.386,141.654,84.874z"/>
		<path fill="#004982" d="M151.066,80.444c2.773,0,4.52,1.566,4.52,4.501c0,2.791-1.746,4.483-4.52,4.483
			c-2.719,0-4.518-1.692-4.518-4.483C146.549,82.173,148.348,80.444,151.066,80.444z M151.066,88.709c1.963,0,2.27-2.251,2.27-3.781
			s-0.307-3.764-2.27-3.764c-1.961,0-2.268,2.27-2.268,3.764C148.799,86.458,149.105,88.709,151.066,88.709z"/>
		<path fill="#004982" d="M158.717,87.448c0.035-0.792,0.035-2.179,0.035-2.881c0-1.963-0.035-2.412-0.125-3.997
			c0.414,0.072,0.719,0.108,1.188,0.108c0.432,0,0.738-0.036,1.027-0.108c-0.109,0.918-0.109,1.009-0.109,1.891
			c0.486-0.774,1.207-1.98,2.646-1.98c0.182,0,0.324,0.018,0.469,0.054c-0.145,0.271-0.162,1.045-0.162,1.297
			c0,0.288,0.037,0.558,0.09,0.773l-0.125,0.091c-0.307-0.253-0.973-0.253-1.062-0.253c-0.811,0-1.387,0.505-1.604,0.973
			c-0.125,0.271-0.215,0.54-0.215,1.782c0,1.152,0.053,2.899,0.162,4.016c-0.217-0.018-0.666-0.108-1.045-0.108
			c-0.307,0-0.703,0.055-1.242,0.108L158.717,87.448z"/>
		<path fill="#004982" d="M169.211,84.298c1.062-0.288,1.205-0.343,1.297-0.505c0.053-0.107,0.07-0.233,0.07-0.359
			c0-1.369-0.773-1.909-1.746-1.909c-1.367,0-1.836,0.847-1.943,1.278c-0.092-0.018-0.182-0.036-0.271-0.036
			s-0.197,0.019-0.287,0.036c0.053-0.342,0.09-0.576,0.09-0.882c0-0.162,0-0.324-0.018-0.486c1.367-0.828,1.926-1.008,2.861-1.008
			c1.945,0,3.277,0.882,3.277,2.7c0,0.666-0.053,2.485-0.053,3.079c0,1.765,0.018,2.196,0.629,2.196c0.18,0,0.342-0.071,0.504-0.144
			c-0.035,0.107-0.072,0.216-0.072,0.324c0,0.107,0.037,0.216,0.072,0.324c-0.467,0.18-1.025,0.396-1.529,0.396
			c-1.062,0-1.279-0.522-1.494-1.099c-0.559,0.738-1.477,1.225-2.414,1.225c-2.088,0-2.484-1.494-2.484-2.196
			c0-1.999,1.225-2.323,2.898-2.772L169.211,84.298z M170.525,84.747c-2.053,0.541-2.791,0.738-2.791,2.035
			c0,0.954,0.469,1.549,1.188,1.549c0.973,0,1.604-0.774,1.604-1.711V84.747z"/>
		<path fill="#004982" d="M178.967,77.455c-0.072,0.252-0.072,0.559-0.127,3.259c0.811,0,0.92,0,1.242-0.018l0.668-0.054
			c-0.037,0.162-0.055,0.27-0.055,0.45c0,0.197,0.018,0.359,0.055,0.54c-0.775-0.072-0.973-0.072-1.963-0.072
			c0,0.774-0.055,2.701-0.055,3.457c0,2.665,0.09,3.439,1.297,3.439c0.396,0,0.721-0.126,1.08-0.379
			c-0.018,0.091-0.072,0.288-0.072,0.433c0,0.18,0.037,0.288,0.072,0.414c-0.521,0.271-1.441,0.522-2.035,0.522
			c-0.504,0-1.205-0.145-1.619-0.469c-0.613-0.485-0.758-1.314-0.758-2.034c0-0.792,0.109-3.943,0.109-5.384h-0.541
			c-0.342,0-0.631,0.036-0.846,0.054c0.018-0.09,0.053-0.216,0.053-0.396c0-0.198-0.018-0.36-0.053-0.576
			c0.125,0.018,0.377,0.071,0.611,0.071h0.793c0-0.504,0-1.224-0.037-2.052c1.027-0.469,1.729-0.973,2.053-1.261L178.967,77.455z"/>
		<path fill="#004982" d="M187.355,80.444c2.773,0,4.52,1.566,4.52,4.501c0,2.791-1.746,4.483-4.52,4.483
			c-2.719,0-4.52-1.692-4.52-4.483C182.836,82.173,184.637,80.444,187.355,80.444z M187.355,88.709c1.963,0,2.27-2.251,2.27-3.781
			s-0.307-3.764-2.27-3.764s-2.27,2.27-2.27,3.764C185.086,86.458,185.393,88.709,187.355,88.709z"/>
		<path fill="#004982" d="M195.004,87.448c0.035-0.792,0.035-2.179,0.035-2.881c0-1.963-0.035-2.412-0.125-3.997
			c0.414,0.072,0.719,0.108,1.188,0.108c0.432,0,0.738-0.036,1.027-0.108c-0.109,0.918-0.109,1.009-0.109,1.891
			c0.486-0.774,1.207-1.98,2.646-1.98c0.182,0,0.324,0.018,0.469,0.054c-0.145,0.271-0.162,1.045-0.162,1.297
			c0,0.288,0.037,0.558,0.09,0.773l-0.125,0.091c-0.307-0.253-0.973-0.253-1.062-0.253c-0.811,0-1.387,0.505-1.604,0.973
			c-0.125,0.271-0.215,0.54-0.215,1.782c0,1.152,0.053,2.899,0.162,4.016c-0.217-0.018-0.666-0.108-1.045-0.108
			c-0.307,0-0.703,0.055-1.242,0.108L195.004,87.448z"/>
		<path fill="#004982" d="M206.754,86.926l0.324-0.756c0.396-0.918,1.242-3.421,1.26-3.475c0.182-0.595,0.469-1.531,0.668-2.125
			c0.287,0.072,0.504,0.108,0.791,0.108c0.307,0,0.559-0.055,0.811-0.108c-0.918,1.801-4.988,10.911-5.545,13.288
			c-0.234-0.054-0.469-0.108-0.811-0.108c-0.289,0-0.523,0.036-0.828,0.108l0.287-0.469c0.379-0.611,1.566-2.952,2.018-3.853
			c-0.162-0.54-0.324-0.9-1.746-4.195l-2.145-4.771c0.631,0.09,0.973,0.108,1.262,0.108c0.287,0,0.684-0.036,1.242-0.108
			c0.197,0.738,1.369,3.817,1.566,4.304L206.754,86.926z"/>
	</g>
	<g>
		<g>
			<path fill-rule="evenodd" clip-rule="evenodd" fill="none" stroke="#004982" stroke-width="2.5742" d="M9.699,23.362
				c1.2-1.723,3.219-3.217,7.08-3.217c4.504,0,7.106-0.727,9.681-1.369c2.413-1.067,3.833-4.426,3.833-6.998
				c0.643-3.22,3.219-7.078,5.792-8.364c1.929-0.646,5.148,0.642,8.366,1.929c3.86,2.574,5.147,4.506,8.366,4.506
				c4.505-0.644,6.436-2.573,6.436-2.573s4.503-3.861,9.009-3.22c5.149,1.287,5.793,7.077,5.793,7.077s1.286,7.083,2.573,9.013
				c1.932,1.931,4.506,2.571,7.078,3.217c3.218,0.645,7.08,0.645,9.655,3.218c2.28,2.09,0.642,8.364,0,9.652
				c-1.288,1.93-3.22,4.504-3.22,7.08c0,1.932,1.932,5.146,3.861,7.082c3.219,2.569,5.7,6.409,5.149,8.364
				c-0.644,3.217-4.505,5.791-7.079,7.078c-2.574,1.928-5.792,3.217-7.08,4.502c-1.287,1.936-1.93,3.217-1.93,9.012
				c0.643,5.789-0.643,9.012-2.573,9.65c-2.575,1.291-7.724,0.646-10.298,0c-1.93-0.639-5.792-1.287-7.722-0.639
				c-1.288,0.639-3.861,2.572-5.792,5.145c-1.931,3.219-4.354,6.156-8.367,5.795c-3.86,0-5.791-3.867-7.078-5.15
				c-1.287-1.928-3.219-5.789-6.435-6.438c-2.575-0.641-5.793,0.648-7.725,0.648c-1.93,0.639-5.147,1.93-9.008,0
				c-3.219-1.934-2.574-9.012-1.932-10.941c0-1.936,0.645-6.436-0.642-8.367c-1.932-2.574-3.863-3.217-7.08-5.148
				c-2.574-1.287-6.435-4.508-6.435-7.082c0-2.57,1.287-5.148,3.861-7.077c1.93-1.287,5.147-5.146,5.791-7.72
				c0.644-1.934-0.644-5.794-1.93-7.724C8.413,32.372,8.018,25.796,9.699,23.362"/>
			<path fill-rule="evenodd" clip-rule="evenodd" fill="none" stroke="#004982" stroke-width="2.5742" d="M21.283,10.489
				c1.288-0.641,3.861-1.284,8.365,0c3.863,1.289,6.437,1.935,9.654,1.935c2.575,0,4.505-2.575,5.792-5.148
				c1.288-2.575,5.149-5.793,7.723-5.793c2.574,0,5.149,2.573,7.723,5.147c2.574,3.219,3.215,5.794,6.433,7.079
				c3.864,0.642,7.082-0.644,7.082-0.644s5.148-1.933,9.009,0.644c4.505,2.574,3.218,8.367,3.218,8.367s-1.288,7.076-0.645,9.007
				c0.645,2.575,3.217,4.506,5.149,5.797c2.575,1.282,6.436,3.213,7.723,6.433c1.477,2.815-1.931,7.721-3.219,9.008
				c-1.929,1.287-4.504,3.219-5.148,5.148c-0.643,2.57,0,5.791,1.287,8.367c1.933,3.859,2.574,7.719,1.289,9.648
				c-1.289,2.578-6.437,3.221-9.012,4.51c-3.216,0.645-6.434,0.645-7.721,1.285c-1.931,1.287-3.219,2.572-5.148,7.721
				c-1.931,5.15-3.864,8.365-6.437,8.365c-1.93,0-7.078-1.932-9.009-3.215c-1.93-1.287-4.174-3.279-7.03-3.76
				c-1.93,0-4.554,1.184-7.772,3.115c-2.575,1.928-5.79,3.859-9.653,2.576c-3.217-1.285-3.861-5.791-4.504-7.721
				c-0.645-1.934-1.288-6.438-3.861-8.367c-2.574-1.932-5.792-1.932-7.723-1.932c-1.93-0.643-5.148,0-8.366-3.219
				c-2.575-2.57,1.287-9.654,1.931-10.939c1.287-1.93,3.217-5.793,2.573-8.365c-0.644-2.576-2.573-3.865-5.147-7.081
				c-1.932-1.929-3.861-6.433-3.218-9.008c0.644-2.571,3.218-4.507,5.792-5.148c2.573-0.645,7.08-3.22,8.367-5.15
				c1.287-1.93,1.287-5.79,1.287-7.722C17.423,18.855,18.496,11.898,21.283,10.489"/>
		</g>
		<g>
			<path d="M39.457,61.227c-0.804,0.643-3.476,1.834-6.695,1.834c-6.788,0-11.743-4.215-11.743-11.518
				c0-7.305,4.956-11.521,12.065-11.521c2.769,0,5.246,0.675,6.984,1.481c-0.321,0.579-0.546,1.833-0.676,2.512l-0.193,0.062
				c-0.901-0.999-3.089-2.862-6.115-2.862c-5.05,0-8.912,3.184-8.912,10.329c0,7.141,3.862,10.326,8.912,10.326
				c3.058,0,5.312-1.738,6.533-2.668l0.129,0.129L39.457,61.227z"/>
			<path d="M43.573,58.365c0.708,1.51,2.317,3.346,5.085,3.346c2.864,0,4.602-2.092,4.602-4.668c0-5.92-10.136-3.377-10.136-10.942
				c0-3.571,2.703-6.079,6.981-6.079c2.028,0,3.477,0.482,4.764,1.513c-0.386,0.739-0.61,1.478-0.869,2.703h-0.385
				c-0.451-1.192-1.417-3.023-3.831-3.023c-2.414,0-4.149,1.641-4.149,3.988c0,6.018,10.135,3.507,10.135,10.622
				c0,3.922-2.93,7.236-7.883,7.236c-2.672,0-4.184-0.93-5.31-1.834c0.387-0.998,0.482-1.641,0.61-2.861H43.573z"/>
			<path d="M76.459,48.776c0-2.769-0.127-5.567-0.256-8.337c0.545,0.099,1.061,0.165,1.576,0.165c0.514,0,1.029-0.066,1.576-0.165
				c-0.129,2.77-0.259,5.568-0.259,8.337v5.535c0,2.766,0.13,5.564,0.259,8.336c-0.547-0.102-1.062-0.166-1.576-0.166
				c-0.516,0-1.031,0.064-1.576,0.166c0.129-2.771,0.256-5.57,0.256-8.336v-2.896c-2.252-0.035-4.473-0.062-6.726-0.062
				c-2.251,0-4.472,0.027-6.726,0.062v2.896c0,2.766,0.13,5.564,0.257,8.336c-0.547-0.102-1.061-0.166-1.576-0.166
				c-0.516,0-1.03,0.064-1.576,0.166c0.127-2.771,0.256-5.57,0.256-8.336v-5.535c0-2.769-0.128-5.567-0.256-8.337
				c0.545,0.099,1.06,0.165,1.576,0.165c0.515,0,1.029-0.066,1.576-0.165c-0.127,2.77-0.257,5.568-0.257,8.337v1.123
				c2.253,0.032,4.475,0.098,6.726,0.098c2.253,0,4.474-0.065,6.726-0.098V48.776z"/>
		</g>
	</g>
</g>
</svg>
